<svg width="135" height="40" viewBox="0 0 135 40" fill="none" xmlns="http://www.w3.org/2000/svg">
<path d="M124.249 0.000191035H10.7566C10.3429 0.000191035 9.9342 0.000191035 9.5216 0.00219104C9.17621 0.00419104 8.83358 0.010001 8.48488 0.014891C7.72733 0.0227928 6.97157 0.0818673 6.22416 0.191601C5.4778 0.303724 4.75482 0.515107 4.07967 0.818601C3.40534 1.12466 2.7892 1.52236 2.25357 1.99726C1.71514 2.47083 1.26632 3.01821 0.924356 3.61835C0.581453 4.2173 0.343683 4.85913 0.219258 5.52167C0.0936495 6.18338 0.0260586 6.85271 0.0170916 7.52367C0.00662229 7.83027 0.00551669 8.13789 0 8.44453V31.5588C0.00551669 31.8693 0.00662229 32.1701 0.0170916 32.4807C0.0260614 33.1516 0.0936522 33.8209 0.219258 34.4826C0.343339 35.1455 0.581124 35.7877 0.924356 36.3869C1.26616 36.9851 1.71505 37.5303 2.25357 38.0012C2.78717 38.4782 3.40371 38.8762 4.07967 39.1799C4.75481 39.4842 5.47772 39.6968 6.22416 39.8107C6.9717 39.9195 7.72738 39.9786 8.48488 39.9875C8.83358 39.9943 9.17621 39.9982 9.5216 39.9982C9.93419 40.0002 10.343 40.0002 10.7566 40.0002H124.249C124.655 40.0002 125.067 40.0002 125.472 39.9982C125.816 39.9982 126.169 39.9943 126.512 39.9875C127.268 39.9791 128.023 39.92 128.769 39.8107C129.518 39.696 130.243 39.4835 130.921 39.1799C131.597 38.876 132.213 38.478 132.746 38.0012C133.283 37.5284 133.733 36.9836 134.079 36.3869C134.42 35.7873 134.655 35.1451 134.777 34.4826C134.903 33.8208 134.973 33.1517 134.987 32.4807C134.991 32.1701 134.991 31.8693 134.991 31.5588C135 31.1955 135 30.8342 135 30.465V9.53632C135 9.17011 135 8.80683 134.991 8.44453C134.991 8.13789 134.991 7.83027 134.987 7.52363C134.973 6.85261 134.903 6.18343 134.777 5.52163C134.655 4.85947 134.419 4.21769 134.079 3.61831C133.383 2.41539 132.278 1.43622 130.921 0.818511C130.243 0.515758 129.518 0.304431 128.769 0.191511C128.023 0.0812938 127.269 0.0221988 126.512 0.014751C126.169 0.00987103 125.816 0.00401103 125.472 0.00206104C125.067 6.10352e-05 124.655 6.10352e-05 124.249 6.10352e-05V0.000191035Z" fill="#A6A6A6"/>
<path d="M9.43001 39.1282C9.08569 39.1282 8.74969 39.1243 8.40807 39.1175C7.70037 39.1093 6.99433 39.0548 6.29574 38.9544C5.64433 38.8551 5.0133 38.6704 4.42345 38.4064C3.839 38.1445 3.30594 37.8012 2.84469 37.3895C2.37676 36.9827 1.98718 36.5109 1.6914 35.9928C1.39236 35.4712 1.18541 34.9122 1.07775 34.3352C0.961494 33.7152 0.898592 33.0883 0.889592 32.4598C0.882427 32.2489 0.873047 31.5465 0.873047 31.5465V8.44113C0.873047 8.44113 0.883037 7.74958 0.889648 7.5464C0.898266 6.91896 0.960802 6.293 1.07671 5.67394C1.18457 5.09534 1.39168 4.53472 1.69088 4.0115C1.98557 3.4937 2.37299 3.02152 2.8381 2.61325C3.30269 2.20111 3.83745 1.85602 4.42289 1.59057C5.01139 1.3274 5.64123 1.144 6.29132 1.04652C6.99221 0.945061 7.7007 0.890209 8.41085 0.882421L9.43056 0.870209H125.57L126.602 0.882911C127.306 0.890312 128.008 0.944674 128.702 1.04554C129.359 1.14424 129.995 1.32892 130.59 1.5935C131.763 2.12846 132.718 2.97481 133.32 4.01394C133.614 4.53355 133.818 5.0896 133.924 5.6632C134.042 6.28733 134.107 6.91821 134.121 7.55081C134.124 7.83407 134.124 8.13833 134.124 8.44113C134.133 8.81621 134.133 9.17321 134.133 9.53315V30.4662C134.133 30.8296 134.133 31.1841 134.124 31.5416C134.124 31.8669 134.124 32.1649 134.12 32.4715C134.107 33.0928 134.042 33.7124 133.927 34.3254C133.821 34.9066 133.615 35.47 133.316 35.9958C133.018 36.5083 132.631 36.976 132.169 37.3817C131.707 37.7956 131.173 38.1409 130.587 38.4045C129.994 38.6705 129.358 38.8559 128.702 38.9544C128.004 39.0554 127.297 39.1099 126.59 39.1175C126.259 39.1243 125.912 39.1282 125.576 39.1282L124.35 39.1302L9.43001 39.1282Z" fill="black"/>
<path d="M32.7973 20.3009C32.8081 19.4662 33.0298 18.6478 33.4418 17.9219C33.8538 17.1959 34.4428 16.586 35.1539 16.1488C34.7021 15.5037 34.1062 14.9727 33.4134 14.5982C32.7205 14.2236 31.9499 14.0158 31.1627 13.9911C29.4835 13.8149 27.8555 14.996 26.9998 14.996C26.1275 14.996 24.81 14.0086 23.3913 14.0378C22.4736 14.0675 21.5793 14.3343 20.7954 14.8124C20.0115 15.2904 19.3649 15.9634 18.9184 16.7657C16.9844 20.1141 18.427 25.0352 20.2796 27.7418C21.2065 29.0671 22.2898 30.5476 23.7072 30.4951C25.0943 30.4375 25.6123 29.6106 27.2866 29.6106C28.9454 29.6106 29.4314 30.4951 30.8776 30.4617C32.366 30.4375 33.3038 29.1305 34.1981 27.7926C34.8641 26.8482 35.3766 25.8045 35.7166 24.7C34.8518 24.3343 34.1139 23.7221 33.5948 22.9398C33.0757 22.1575 32.7983 21.2397 32.7973 20.3009Z" fill="white"/>
<path d="M30.0656 12.2111C30.8772 11.2369 31.277 9.98469 31.1802 8.72046C29.9403 8.85068 28.7951 9.44324 27.9726 10.3801C27.5704 10.8377 27.2624 11.3702 27.0662 11.9469C26.87 12.5237 26.7893 13.1335 26.8289 13.7415C27.449 13.7478 28.0625 13.6134 28.6232 13.3483C29.1838 13.0833 29.6771 12.6944 30.0656 12.2111Z" fill="white"/>
<path d="M50.3307 27.1398H45.5973L44.4606 30.4963H42.4557L46.9391 18.0783H49.0221L53.5055 30.4963H51.4664L50.3307 27.1398ZM46.0875 25.591H49.8395L47.9899 20.1437H47.9381L46.0875 25.591Z" fill="white"/>
<path d="M63.1881 25.9699C63.1881 28.7834 61.6823 30.591 59.4098 30.591C58.8342 30.6211 58.2617 30.4885 57.7579 30.2084C57.2541 29.9282 56.8394 29.5119 56.5612 29.007H56.5182V33.4914H54.6598V21.4426H56.4586V22.9484H56.4928C56.7838 22.446 57.2055 22.0318 57.7131 21.7499C58.2208 21.4681 58.7953 21.3291 59.3756 21.3478C61.6735 21.3478 63.1881 23.1642 63.1881 25.9699ZM61.278 25.9699C61.278 24.1369 60.3307 22.9318 58.8854 22.9318C57.4655 22.9318 56.5104 24.1623 56.5104 25.9699C56.5104 27.7941 57.4655 29.0158 58.8854 29.0158C60.3307 29.0158 61.278 27.8195 61.278 25.9699Z" fill="white"/>
<path d="M73.153 25.9699C73.153 28.7834 71.6471 30.591 69.3747 30.591C68.799 30.6211 68.2265 30.4885 67.7227 30.2084C67.2189 29.9282 66.8042 29.5119 66.526 29.007H66.483V33.4914H64.6246V21.4426H66.4235V22.9484H66.4576C66.7486 22.4459 67.1703 22.0318 67.678 21.7499C68.1856 21.4681 68.7601 21.3291 69.3405 21.3478C71.6383 21.3478 73.153 23.1642 73.153 25.9699ZM71.2428 25.9699C71.2428 24.1369 70.2956 22.9318 68.8502 22.9318C67.4303 22.9318 66.4752 24.1623 66.4752 25.9699C66.4752 27.7941 67.4303 29.0158 68.8502 29.0158C70.2956 29.0158 71.2428 27.8195 71.2428 25.9699H71.2428Z" fill="white"/>
<path d="M79.7389 27.0363C79.8766 28.2678 81.0729 29.0763 82.7077 29.0763C84.2741 29.0763 85.401 28.2677 85.401 27.1574C85.401 26.1935 84.7213 25.6164 83.112 25.2208L81.5026 24.8331C79.2223 24.2824 78.1637 23.2159 78.1637 21.4855C78.1637 19.3429 80.0309 17.8712 82.6823 17.8712C85.3063 17.8712 87.1051 19.3429 87.1657 21.4855H85.2897C85.1774 20.2462 84.153 19.4982 82.6559 19.4982C81.1588 19.4982 80.1344 20.255 80.1344 21.3566C80.1344 22.2345 80.7887 22.7511 82.3893 23.1466L83.7574 23.4825C86.3053 24.0851 87.3639 25.1085 87.3639 26.9249C87.3639 29.2481 85.5133 30.7032 82.5699 30.7032C79.816 30.7032 77.9567 29.2823 77.8365 27.0362L79.7389 27.0363Z" fill="white"/>
<path d="M91.3746 19.3V21.4426H93.0963V22.9142H91.3746V27.9055C91.3746 28.6808 91.7194 29.0422 92.4762 29.0422C92.6806 29.0386 92.8846 29.0243 93.0875 28.9992V30.4621C92.7472 30.5256 92.4014 30.5544 92.0553 30.548C90.2223 30.548 89.5074 29.8595 89.5074 28.1037V22.9142H88.191V21.4426H89.5074V19.3H91.3746Z" fill="white"/>
<path d="M94.0934 25.9699C94.0934 23.1213 95.7711 21.3312 98.3873 21.3312C101.012 21.3312 102.682 23.1212 102.682 25.9699C102.682 28.8264 101.021 30.6086 98.3873 30.6086C95.7545 30.6086 94.0934 28.8263 94.0934 25.9699ZM100.789 25.9699C100.789 24.0158 99.8932 22.8625 98.3873 22.8625C96.8815 22.8625 95.9869 24.0246 95.9869 25.9699C95.9869 27.9318 96.8815 29.0764 98.3873 29.0764C99.8932 29.0764 100.789 27.9318 100.789 25.9699H100.789Z" fill="white"/>
<path d="M104.214 21.4426H105.987V22.9836H106.03C106.15 22.5023 106.432 22.0769 106.828 21.7791C107.225 21.4812 107.712 21.3289 108.208 21.3478C108.422 21.3471 108.635 21.3703 108.844 21.4172V23.1554C108.574 23.0728 108.292 23.0349 108.009 23.0431C107.739 23.0322 107.47 23.0798 107.22 23.1827C106.971 23.2856 106.746 23.4413 106.562 23.6392C106.378 23.8371 106.239 24.0724 106.155 24.3291C106.07 24.5858 106.042 24.8577 106.073 25.1261V30.4963H104.214L104.214 21.4426Z" fill="white"/>
<path d="M117.413 27.8371C117.163 29.4806 115.562 30.6086 113.514 30.6086C110.88 30.6086 109.246 28.8439 109.246 26.0129C109.246 23.173 110.889 21.3312 113.436 21.3312C115.941 21.3312 117.516 23.0519 117.516 25.7971V26.4338H111.122V26.5461C111.092 26.8793 111.134 27.2149 111.244 27.5308C111.354 27.8466 111.53 28.1354 111.761 28.378C111.991 28.6205 112.27 28.8113 112.58 28.9376C112.89 29.0639 113.223 29.1228 113.557 29.1105C113.996 29.1517 114.437 29.05 114.814 28.8205C115.191 28.5911 115.483 28.2462 115.648 27.8371L117.413 27.8371ZM111.13 25.1349H115.657C115.674 24.8354 115.628 24.5355 115.523 24.2543C115.419 23.9731 115.257 23.7166 115.049 23.5008C114.84 23.2851 114.589 23.1147 114.312 23.0005C114.034 22.8863 113.736 22.8307 113.436 22.8371C113.134 22.8353 112.834 22.8934 112.553 23.0082C112.273 23.1229 112.019 23.292 111.805 23.5056C111.59 23.7193 111.42 23.9732 111.305 24.2529C111.189 24.5325 111.13 24.8323 111.13 25.135V25.1349Z" fill="white"/>
<path d="M45.8546 8.7312C46.2442 8.70324 46.6352 8.7621 46.9993 8.90353C47.3634 9.04496 47.6916 9.26544 47.9602 9.54907C48.2288 9.83269 48.4311 10.1724 48.5525 10.5437C48.6739 10.9149 48.7114 11.3085 48.6622 11.696C48.6622 13.6023 47.632 14.698 45.8546 14.698H43.6993V8.7312H45.8546ZM44.6261 13.8542H45.7511C46.0295 13.8708 46.3081 13.8252 46.5666 13.7206C46.8252 13.616 47.0571 13.455 47.2456 13.2494C47.4341 13.0439 47.5744 12.7989 47.6563 12.5323C47.7381 12.2656 47.7595 11.9841 47.7189 11.7082C47.7566 11.4334 47.733 11.1536 47.6499 10.8889C47.5668 10.6243 47.4262 10.3813 47.2381 10.1773C47.05 9.9734 46.8192 9.81359 46.5621 9.70936C46.305 9.60512 46.0281 9.55904 45.7511 9.57441H44.6261V13.8542Z" fill="white"/>
<path d="M49.7091 12.4445C49.6808 12.1486 49.7147 11.85 49.8085 11.568C49.9024 11.2859 50.0541 11.0266 50.2541 10.8066C50.454 10.5866 50.6977 10.4108 50.9696 10.2906C51.2414 10.1703 51.5354 10.1082 51.8327 10.1082C52.1299 10.1082 52.4239 10.1703 52.6958 10.2906C52.9676 10.4108 53.2113 10.5866 53.4113 10.8066C53.6112 11.0266 53.763 11.2859 53.8568 11.568C53.9507 11.85 53.9845 12.1486 53.9562 12.4445C53.9851 12.7408 53.9516 13.0397 53.858 13.3223C53.7644 13.6048 53.6128 13.8646 53.4128 14.085C53.2128 14.3054 52.9689 14.4816 52.6968 14.6021C52.4246 14.7226 52.1303 14.7849 51.8327 14.7849C51.5351 14.7849 51.2407 14.7226 50.9686 14.6021C50.6965 14.4816 50.4526 14.3054 50.2526 14.085C50.0526 13.8646 49.9009 13.6048 49.8073 13.3223C49.7137 13.0397 49.6803 12.7408 49.7091 12.4445ZM53.0421 12.4445C53.0421 11.4685 52.6037 10.8977 51.8341 10.8977C51.0617 10.8977 50.6271 11.4685 50.6271 12.4445C50.6271 13.4284 51.0617 13.9948 51.8341 13.9948C52.6037 13.9948 53.0422 13.4245 53.0422 12.4445H53.0421Z" fill="white"/>
<path d="M59.6017 14.6979H58.6798L57.7491 11.3815H57.6788L56.7521 14.6979H55.839L54.5978 10.195H55.4991L56.3058 13.631H56.3722L57.298 10.195H58.1505L59.0763 13.631H59.1466L59.9493 10.195H60.838L59.6017 14.6979Z" fill="white"/>
<path d="M61.882 10.195H62.7374V10.9104H62.8038C62.9165 10.6534 63.1065 10.4381 63.3474 10.2943C63.5882 10.1504 63.868 10.0854 64.1476 10.1081C64.3667 10.0916 64.5867 10.1247 64.7913 10.2048C64.9959 10.2849 65.1798 10.41 65.3295 10.5708C65.4792 10.7316 65.5908 10.9241 65.656 11.1339C65.7212 11.3437 65.7383 11.5655 65.7062 11.7829V14.6979H64.8175V12.0061C64.8175 11.2824 64.5031 10.9226 63.8458 10.9226C63.6971 10.9156 63.5486 10.941 63.4105 10.9968C63.2725 11.0526 63.1481 11.1376 63.046 11.246C62.9439 11.3544 62.8664 11.4836 62.8188 11.6247C62.7713 11.7658 62.7549 11.9156 62.7706 12.0637V14.698H61.882L61.882 10.195Z" fill="white"/>
<path d="M67.1222 8.43719H68.0109V14.6979H67.1222V8.43719Z" fill="white"/>
<path d="M69.2462 12.4445C69.2179 12.1486 69.2518 11.85 69.3457 11.5679C69.4395 11.2858 69.5913 11.0265 69.7913 10.8065C69.9912 10.5865 70.235 10.4107 70.5068 10.2905C70.7787 10.1702 71.0727 10.1081 71.37 10.1081C71.6673 10.1081 71.9613 10.1702 72.2332 10.2905C72.505 10.4107 72.7488 10.5865 72.9487 10.8065C73.1487 11.0265 73.3005 11.2858 73.3943 11.5679C73.4882 11.85 73.5221 12.1486 73.4938 12.4445C73.5226 12.7408 73.4891 13.0397 73.3955 13.3223C73.3019 13.6048 73.1502 13.8646 72.9502 14.085C72.7502 14.3054 72.5062 14.4815 72.2341 14.6021C71.962 14.7226 71.6676 14.7849 71.37 14.7849C71.0724 14.7849 70.778 14.7226 70.5059 14.6021C70.2338 14.4815 69.9899 14.3054 69.7898 14.085C69.5898 13.8646 69.4381 13.6048 69.3445 13.3223C69.2509 13.0397 69.2174 12.7408 69.2462 12.4445ZM72.5792 12.4445C72.5792 11.4685 72.1407 10.8977 71.3712 10.8977C70.5988 10.8977 70.1642 11.4685 70.1642 12.4445C70.1642 13.4284 70.5988 13.9948 71.3712 13.9948C72.1408 13.9948 72.5792 13.4245 72.5792 12.4445H72.5792Z" fill="white"/>
<path d="M74.4293 13.4245C74.4293 12.614 75.0328 12.1467 76.1041 12.0803L77.3239 12.01V11.6213C77.3239 11.1457 77.0094 10.8772 76.402 10.8772C75.9059 10.8772 75.5621 11.0593 75.4635 11.3777H74.6031C74.694 10.6042 75.4215 10.1081 76.443 10.1081C77.5719 10.1081 78.2086 10.6701 78.2086 11.6213V14.698H77.3531V14.0652H77.2828C77.1401 14.2921 76.9397 14.4772 76.7021 14.6014C76.4645 14.7256 76.1981 14.7845 75.9303 14.7722C75.7413 14.7918 75.5502 14.7716 75.3694 14.713C75.1887 14.6543 75.0222 14.5583 74.8808 14.4314C74.7394 14.3044 74.6262 14.1492 74.5484 13.9758C74.4706 13.8024 74.4301 13.6146 74.4293 13.4245ZM77.3239 13.0398V12.6633L76.2242 12.7336C75.6041 12.7751 75.3229 12.986 75.3229 13.383C75.3229 13.7883 75.6744 14.0241 76.1579 14.0241C76.2995 14.0385 76.4426 14.0242 76.5786 13.9821C76.7146 13.94 76.8408 13.871 76.9495 13.7791C77.0583 13.6873 77.1475 13.5745 77.2118 13.4475C77.2761 13.3205 77.3142 13.1818 77.3239 13.0398Z" fill="white"/>
<path d="M79.3766 12.4445C79.3766 11.0217 80.108 10.1203 81.2457 10.1203C81.5271 10.1073 81.8064 10.1748 82.051 10.3146C82.2955 10.4545 82.4951 10.6611 82.6266 10.9103H82.693V8.43719H83.5817V14.6979H82.7301V13.9865H82.6598C82.5182 14.234 82.3116 14.438 82.0623 14.5765C81.8131 14.715 81.5307 14.7826 81.2457 14.7721C80.1002 14.7722 79.3766 13.8708 79.3766 12.4445ZM80.2946 12.4445C80.2946 13.3996 80.7448 13.9743 81.4977 13.9743C82.2467 13.9743 82.7096 13.3913 82.7096 12.4484C82.7096 11.51 82.2419 10.9187 81.4977 10.9187C80.7496 10.9187 80.2946 11.4973 80.2946 12.4445H80.2946Z" fill="white"/>
<path d="M87.2585 12.4445C87.2301 12.1486 87.264 11.85 87.3578 11.568C87.4517 11.2859 87.6034 11.0266 87.8034 10.8066C88.0033 10.5866 88.247 10.4108 88.5189 10.2906C88.7907 10.1703 89.0847 10.1082 89.382 10.1082C89.6793 10.1082 89.9732 10.1703 90.2451 10.2906C90.517 10.4108 90.7607 10.5866 90.9606 10.8066C91.1605 11.0266 91.3123 11.2859 91.4061 11.568C91.5 11.85 91.5338 12.1486 91.5055 12.4445C91.5344 12.7408 91.5009 13.0397 91.4073 13.3223C91.3137 13.6048 91.1621 13.8646 90.9621 14.085C90.7621 14.3054 90.5182 14.4816 90.2461 14.6021C89.9739 14.7226 89.6796 14.7849 89.382 14.7849C89.0844 14.7849 88.79 14.7226 88.5179 14.6021C88.2458 14.4816 88.0019 14.3054 87.8019 14.085C87.6019 13.8646 87.4502 13.6048 87.3566 13.3223C87.2631 13.0397 87.2296 12.7408 87.2585 12.4445ZM90.5915 12.4445C90.5915 11.4685 90.153 10.8977 89.3835 10.8977C88.611 10.8977 88.1765 11.4685 88.1765 12.4445C88.1765 13.4284 88.611 13.9948 89.3835 13.9948C90.153 13.9948 90.5915 13.4245 90.5915 12.4445Z" fill="white"/>
<path d="M92.6979 10.195H93.5533V10.9104H93.6198C93.7324 10.6534 93.9224 10.4381 94.1633 10.2943C94.4042 10.1504 94.6839 10.0854 94.9635 10.1081C95.1826 10.0916 95.4026 10.1247 95.6072 10.2048C95.8118 10.2849 95.9958 10.41 96.1454 10.5708C96.2951 10.7316 96.4067 10.9241 96.4719 11.1339C96.5371 11.3437 96.5543 11.5655 96.5221 11.7829V14.6979H95.6334V12.0061C95.6334 11.2824 95.319 10.9226 94.6618 10.9226C94.513 10.9156 94.3645 10.941 94.2264 10.9968C94.0884 11.0526 93.964 11.1376 93.8619 11.246C93.7598 11.3544 93.6823 11.4836 93.6348 11.6247C93.5872 11.7658 93.5708 11.9156 93.5865 12.0637V14.698H92.6979V10.195Z" fill="white"/>
<path d="M101.544 9.07391V10.2155H102.519V10.9641H101.544V13.2795C101.544 13.7512 101.738 13.9577 102.18 13.9577C102.294 13.9573 102.407 13.9505 102.519 13.9372V14.6774C102.36 14.706 102.198 14.7212 102.036 14.7228C101.047 14.7228 100.654 14.3752 100.654 13.507V10.964H99.9391V10.2155H100.654V9.07391H101.544Z" fill="white"/>
<path d="M103.733 8.43719H104.614V10.9186H104.684C104.802 10.6593 104.998 10.4427 105.243 10.2984C105.489 10.154 105.773 10.089 106.057 10.112C106.275 10.1001 106.493 10.1365 106.695 10.2186C106.898 10.3006 107.079 10.4263 107.227 10.5866C107.376 10.747 107.486 10.938 107.552 11.1462C107.618 11.3543 107.637 11.5744 107.608 11.7907V14.6979H106.718V12.0099C106.718 11.2907 106.383 10.9264 105.756 10.9264C105.603 10.9139 105.449 10.9349 105.305 10.988C105.162 11.041 105.031 11.1249 104.923 11.2336C104.815 11.3423 104.732 11.4733 104.68 11.6175C104.628 11.7616 104.608 11.9154 104.622 12.068V14.6979H103.733L103.733 8.43719Z" fill="white"/>
<path d="M112.79 13.4821C112.669 13.8937 112.407 14.2497 112.051 14.4878C111.694 14.726 111.265 14.8311 110.839 14.7849C110.542 14.7927 110.247 14.7359 109.975 14.6183C109.702 14.5008 109.458 14.3254 109.26 14.1043C109.063 13.8831 108.915 13.6216 108.828 13.3377C108.742 13.0539 108.718 12.7546 108.758 12.4606C108.719 12.1658 108.743 11.8658 108.83 11.5812C108.916 11.2965 109.063 11.0337 109.26 10.8106C109.457 10.5876 109.699 10.4094 109.971 10.2882C110.243 10.167 110.537 10.1056 110.835 10.1081C112.088 10.1081 112.843 10.9641 112.843 12.3781V12.6882H109.664V12.738C109.65 12.9032 109.671 13.0696 109.725 13.2263C109.779 13.3831 109.865 13.5268 109.978 13.6482C110.091 13.7697 110.228 13.8662 110.38 13.9316C110.533 13.997 110.697 14.0298 110.863 14.028C111.076 14.0535 111.291 14.0152 111.482 13.918C111.672 13.8208 111.83 13.6691 111.934 13.4821L112.79 13.4821ZM109.664 12.031H111.938C111.949 11.8798 111.929 11.728 111.878 11.5853C111.827 11.4426 111.747 11.3121 111.642 11.2023C111.538 11.0924 111.412 11.0056 111.272 10.9474C111.132 10.8892 110.981 10.861 110.83 10.8645C110.676 10.8625 110.523 10.8914 110.381 10.9493C110.239 11.0073 110.109 11.0931 110.001 11.2018C109.892 11.3106 109.806 11.4399 109.748 11.5823C109.691 11.7247 109.662 11.8773 109.664 12.031H109.664Z" fill="white"/>
</svg>
